<mxfile host="app.diagrams.net" modified="2021-04-27T11:22:06.286Z" agent="5.0 (Macintosh; Intel Mac OS X 11_0_1) AppleWebKit/537.36 (KHTML, like Gecko) Chrome/89.0.4389.128 Safari/537.36" etag="_DT1_IkbYjPrUUmZSqfU" version="14.6.6" type="github">
  <diagram id="xEzvbHc2wVUWec-voi2f" name="Page-1">
    <mxGraphModel dx="901" dy="619" grid="1" gridSize="10" guides="1" tooltips="1" connect="1" arrows="1" fold="1" page="1" pageScale="1" pageWidth="827" pageHeight="1169" math="0" shadow="0">
      <root>
        <mxCell id="0" />
        <mxCell id="1" parent="0" />
        <mxCell id="wUHCLOmeRVV4cEU-SdVx-8" style="edgeStyle=orthogonalEdgeStyle;rounded=0;orthogonalLoop=1;jettySize=auto;html=1;exitX=0.5;exitY=0;exitDx=0;exitDy=0;entryX=0;entryY=0.5;entryDx=0;entryDy=0;" edge="1" parent="1" source="wUHCLOmeRVV4cEU-SdVx-1" target="wUHCLOmeRVV4cEU-SdVx-7">
          <mxGeometry relative="1" as="geometry" />
        </mxCell>
        <mxCell id="wUHCLOmeRVV4cEU-SdVx-1" value="地磅1" style="rounded=0;whiteSpace=wrap;html=1;" vertex="1" parent="1">
          <mxGeometry x="160" y="390" width="120" height="60" as="geometry" />
        </mxCell>
        <mxCell id="wUHCLOmeRVV4cEU-SdVx-2" value="" style="endArrow=none;dashed=1;html=1;" edge="1" parent="1">
          <mxGeometry width="50" height="50" relative="1" as="geometry">
            <mxPoint x="100" y="240" as="sourcePoint" />
            <mxPoint x="1192" y="240" as="targetPoint" />
          </mxGeometry>
        </mxCell>
        <mxCell id="wUHCLOmeRVV4cEU-SdVx-3" value="云端" style="text;html=1;strokeColor=none;fillColor=none;align=center;verticalAlign=middle;whiteSpace=wrap;rounded=0;" vertex="1" parent="1">
          <mxGeometry x="80" y="130" width="40" height="20" as="geometry" />
        </mxCell>
        <mxCell id="wUHCLOmeRVV4cEU-SdVx-4" value="本地" style="text;html=1;strokeColor=none;fillColor=none;align=center;verticalAlign=middle;whiteSpace=wrap;rounded=0;" vertex="1" parent="1">
          <mxGeometry x="80" y="280" width="40" height="20" as="geometry" />
        </mxCell>
        <mxCell id="wUHCLOmeRVV4cEU-SdVx-9" style="edgeStyle=orthogonalEdgeStyle;rounded=0;orthogonalLoop=1;jettySize=auto;html=1;exitX=0.5;exitY=0;exitDx=0;exitDy=0;entryX=1;entryY=0.5;entryDx=0;entryDy=0;" edge="1" parent="1" source="wUHCLOmeRVV4cEU-SdVx-5" target="wUHCLOmeRVV4cEU-SdVx-7">
          <mxGeometry relative="1" as="geometry" />
        </mxCell>
        <mxCell id="wUHCLOmeRVV4cEU-SdVx-5" value="地磅2" style="rounded=0;whiteSpace=wrap;html=1;" vertex="1" parent="1">
          <mxGeometry x="380" y="390" width="120" height="60" as="geometry" />
        </mxCell>
        <mxCell id="wUHCLOmeRVV4cEU-SdVx-7" value="消息队列mqtt" style="rounded=0;whiteSpace=wrap;html=1;shadow=0;" vertex="1" parent="1">
          <mxGeometry x="270" y="140" width="120" height="60" as="geometry" />
        </mxCell>
        <mxCell id="wUHCLOmeRVV4cEU-SdVx-17" style="edgeStyle=orthogonalEdgeStyle;rounded=0;orthogonalLoop=1;jettySize=auto;html=1;exitX=0.5;exitY=0;exitDx=0;exitDy=0;" edge="1" parent="1" source="wUHCLOmeRVV4cEU-SdVx-13" target="wUHCLOmeRVV4cEU-SdVx-15">
          <mxGeometry relative="1" as="geometry" />
        </mxCell>
        <mxCell id="wUHCLOmeRVV4cEU-SdVx-13" value="边缘节点" style="rounded=0;whiteSpace=wrap;html=1;shadow=0;" vertex="1" parent="1">
          <mxGeometry x="620" y="360" width="120" height="60" as="geometry" />
        </mxCell>
        <mxCell id="wUHCLOmeRVV4cEU-SdVx-14" value="过磅服务" style="rounded=0;whiteSpace=wrap;html=1;shadow=0;" vertex="1" parent="1">
          <mxGeometry x="620" y="30" width="120" height="60" as="geometry" />
        </mxCell>
        <mxCell id="wUHCLOmeRVV4cEU-SdVx-16" style="edgeStyle=orthogonalEdgeStyle;rounded=0;orthogonalLoop=1;jettySize=auto;html=1;exitX=0.5;exitY=0;exitDx=0;exitDy=0;" edge="1" parent="1" source="wUHCLOmeRVV4cEU-SdVx-15" target="wUHCLOmeRVV4cEU-SdVx-14">
          <mxGeometry relative="1" as="geometry" />
        </mxCell>
        <mxCell id="wUHCLOmeRVV4cEU-SdVx-15" value="IoT平台" style="rounded=0;whiteSpace=wrap;html=1;shadow=0;" vertex="1" parent="1">
          <mxGeometry x="620" y="140" width="120" height="60" as="geometry" />
        </mxCell>
        <mxCell id="wUHCLOmeRVV4cEU-SdVx-18" style="edgeStyle=orthogonalEdgeStyle;rounded=0;orthogonalLoop=1;jettySize=auto;html=1;exitX=0.5;exitY=0;exitDx=0;exitDy=0;entryX=0;entryY=0.5;entryDx=0;entryDy=0;" edge="1" parent="1" source="wUHCLOmeRVV4cEU-SdVx-19" target="wUHCLOmeRVV4cEU-SdVx-22">
          <mxGeometry relative="1" as="geometry" />
        </mxCell>
        <mxCell id="wUHCLOmeRVV4cEU-SdVx-19" value="地磅1" style="rounded=0;whiteSpace=wrap;html=1;" vertex="1" parent="1">
          <mxGeometry x="820" y="380" width="120" height="60" as="geometry" />
        </mxCell>
        <mxCell id="wUHCLOmeRVV4cEU-SdVx-20" style="edgeStyle=orthogonalEdgeStyle;rounded=0;orthogonalLoop=1;jettySize=auto;html=1;exitX=0.5;exitY=0;exitDx=0;exitDy=0;entryX=1;entryY=0.5;entryDx=0;entryDy=0;" edge="1" parent="1" source="wUHCLOmeRVV4cEU-SdVx-21" target="wUHCLOmeRVV4cEU-SdVx-22">
          <mxGeometry relative="1" as="geometry" />
        </mxCell>
        <mxCell id="wUHCLOmeRVV4cEU-SdVx-21" value="地磅2" style="rounded=0;whiteSpace=wrap;html=1;" vertex="1" parent="1">
          <mxGeometry x="1040" y="380" width="120" height="60" as="geometry" />
        </mxCell>
        <mxCell id="wUHCLOmeRVV4cEU-SdVx-24" style="edgeStyle=orthogonalEdgeStyle;rounded=0;orthogonalLoop=1;jettySize=auto;html=1;exitX=0.5;exitY=0;exitDx=0;exitDy=0;entryX=0.5;entryY=1;entryDx=0;entryDy=0;" edge="1" parent="1" source="wUHCLOmeRVV4cEU-SdVx-22" target="wUHCLOmeRVV4cEU-SdVx-23">
          <mxGeometry relative="1" as="geometry" />
        </mxCell>
        <mxCell id="wUHCLOmeRVV4cEU-SdVx-22" value="消息队列mqtt" style="rounded=0;whiteSpace=wrap;html=1;shadow=0;" vertex="1" parent="1">
          <mxGeometry x="930" y="270" width="120" height="60" as="geometry" />
        </mxCell>
        <mxCell id="wUHCLOmeRVV4cEU-SdVx-23" value="消息队列mqtt" style="rounded=0;whiteSpace=wrap;html=1;shadow=0;" vertex="1" parent="1">
          <mxGeometry x="930" y="120" width="120" height="60" as="geometry" />
        </mxCell>
        <mxCell id="wUHCLOmeRVV4cEU-SdVx-25" value="&lt;h1&gt;v3版本&lt;/h1&gt;&lt;p&gt;过磅业务逻辑在边缘节点&lt;/p&gt;&lt;p&gt;mqtt协议接收实时变化便于监控&lt;/p&gt;&lt;p&gt;过磅记录也发送到消息队列&lt;/p&gt;&lt;p&gt;无界面，web远程模式。&lt;/p&gt;" style="text;html=1;strokeColor=none;fillColor=none;spacing=5;spacingTop=-20;whiteSpace=wrap;overflow=hidden;rounded=0;shadow=0;" vertex="1" parent="1">
          <mxGeometry x="235" y="510" width="195" height="200" as="geometry" />
        </mxCell>
      </root>
    </mxGraphModel>
  </diagram>
</mxfile>
